<svg xmlns="http://www.w3.org/2000/svg" version="1.1" xmlns:xlink="http://www.w3.org/1999/xlink" xmlns:svgjs="http://svgjs.dev/svgjs" width="1440" height="560" preserveAspectRatio="none" viewBox="0 0 1440 560"><g mask="url(&quot;#SvgjsMask1064&quot;)" fill="none"><path d="M-54.71 351.13L-54.71 351.13" stroke="rgba(49, 130, 206, 1)" stroke-width="1.5"></path><path d="M-54.71 351.13L68.75 394.45" stroke="rgba(49, 130, 206, 1)" stroke-width="1.5"></path><path d="M-54.71 351.13L-58.59 549.82" stroke="rgba(49, 130, 206, 1)" stroke-width="1.5"></path><path d="M-54.71 351.13L189.17 386.52" stroke="rgba(49, 130, 206, 1)" stroke-width="1.5"></path><path d="M-54.71 351.13L111.21 560.52" stroke="rgba(49, 130, 206, 1)" stroke-width="1.5"></path><path d="M-54.71 351.13L-80.12 680" stroke="rgba(49, 130, 206, 1)" stroke-width="1.5"></path><path d="M-54.71 351.13L240.19 539.71" stroke="rgba(49, 130, 206, 1)" stroke-width="1.5"></path><path d="M-58.59 549.82L-58.59 549.82" stroke="rgba(49, 130, 206, 1)" stroke-width="1.5"></path><path d="M-58.59 549.82L-80.12 680" stroke="rgba(49, 130, 206, 1)" stroke-width="1.5"></path><path d="M-58.59 549.82L111.21 560.52" stroke="rgba(49, 130, 206, 1)" stroke-width="1.5"></path><path d="M-80.12 680L-80.12 680" stroke="rgba(49, 130, 206, 1)" stroke-width="1.5"></path><path d="M-80.12 680L46.41 706.48" stroke="rgba(49, 130, 206, 1)" stroke-width="1.5"></path><path d="M-80.12 680L111.21 560.52" stroke="rgba(49, 130, 206, 1)" stroke-width="1.5"></path><path d="M-80.12 680L68.75 394.45" stroke="rgba(49, 130, 206, 1)" stroke-width="1.5"></path><path d="M68.75 394.45L68.75 394.45" stroke="rgba(49, 130, 206, 1)" stroke-width="1.5"></path><path d="M68.75 394.45L189.17 386.52" stroke="rgba(49, 130, 206, 1)" stroke-width="1.5"></path><path d="M111.21 560.52L111.21 560.52" stroke="rgba(49, 130, 206, 1)" stroke-width="1.5"></path><path d="M111.21 560.52L240.19 539.71" stroke="rgba(49, 130, 206, 1)" stroke-width="1.5"></path><path d="M111.21 560.52L46.41 706.48" stroke="rgba(49, 130, 206, 1)" stroke-width="1.5"></path><path d="M111.21 560.52L68.75 394.45" stroke="rgba(49, 130, 206, 1)" stroke-width="1.5"></path><path d="M111.21 560.52L189.17 386.52" stroke="rgba(49, 130, 206, 1)" stroke-width="1.5"></path><path d="M46.41 706.48L46.41 706.48" stroke="rgba(49, 130, 206, 1)" stroke-width="1.5"></path><path d="M46.41 706.48L-58.59 549.82" stroke="rgba(49, 130, 206, 1)" stroke-width="1.5"></path><path d="M46.41 706.48L259.72 691.48" stroke="rgba(49, 130, 206, 1)" stroke-width="1.5"></path><path d="M46.41 706.48L240.19 539.71" stroke="rgba(49, 130, 206, 1)" stroke-width="1.5"></path><path d="M189.17 386.52L189.17 386.52" stroke="rgba(49, 130, 206, 1)" stroke-width="1.5"></path><path d="M189.17 386.52L240.19 539.71" stroke="rgba(49, 130, 206, 1)" stroke-width="1.5"></path><path d="M189.17 386.52L366.62 411.92" stroke="rgba(49, 130, 206, 1)" stroke-width="1.5"></path><path d="M189.17 386.52L377.16 488.03" stroke="rgba(49, 130, 206, 1)" stroke-width="1.5"></path><path d="M240.19 539.71L240.19 539.71" stroke="rgba(49, 130, 206, 1)" stroke-width="1.5"></path><path d="M259.72 691.48L259.72 691.48" stroke="rgba(49, 130, 206, 1)" stroke-width="1.5"></path><path d="M259.72 691.48L391.21 692.62" stroke="rgba(49, 130, 206, 1)" stroke-width="1.5"></path><path d="M259.72 691.48L240.19 539.71" stroke="rgba(49, 130, 206, 1)" stroke-width="1.5"></path><path d="M259.72 691.48L111.21 560.52" stroke="rgba(49, 130, 206, 1)" stroke-width="1.5"></path><path d="M366.62 411.92L366.62 411.92" stroke="rgba(49, 130, 206, 1)" stroke-width="1.5"></path><path d="M366.62 411.92L377.16 488.03" stroke="rgba(49, 130, 206, 1)" stroke-width="1.5"></path><path d="M366.62 411.92L525.08 397.02" stroke="rgba(49, 130, 206, 1)" stroke-width="1.5"></path><path d="M366.62 411.92L499.3 504.12" stroke="rgba(49, 130, 206, 1)" stroke-width="1.5"></path><path d="M366.62 411.92L240.19 539.71" stroke="rgba(49, 130, 206, 1)" stroke-width="1.5"></path><path d="M366.62 411.92L391.21 692.62" stroke="rgba(49, 130, 206, 1)" stroke-width="1.5"></path><path d="M377.16 488.03L377.16 488.03" stroke="rgba(49, 130, 206, 1)" stroke-width="1.5"></path><path d="M377.16 488.03L499.3 504.12" stroke="rgba(49, 130, 206, 1)" stroke-width="1.5"></path><path d="M377.16 488.03L240.19 539.71" stroke="rgba(49, 130, 206, 1)" stroke-width="1.5"></path><path d="M377.16 488.03L525.08 397.02" stroke="rgba(49, 130, 206, 1)" stroke-width="1.5"></path><path d="M377.16 488.03L391.21 692.62" stroke="rgba(49, 130, 206, 1)" stroke-width="1.5"></path><path d="M391.21 692.62L391.21 692.62" stroke="rgba(49, 130, 206, 1)" stroke-width="1.5"></path><path d="M391.21 692.62L538.2 653.53" stroke="rgba(49, 130, 206, 1)" stroke-width="1.5"></path><path d="M525.08 397.02L525.08 397.02" stroke="rgba(49, 130, 206, 1)" stroke-width="1.5"></path><path d="M525.08 397.02L499.3 504.12" stroke="rgba(49, 130, 206, 1)" stroke-width="1.5"></path><path d="M525.08 397.02L702.52 347.73" stroke="rgba(49, 130, 206, 1)" stroke-width="1.5"></path><path d="M525.08 397.02L711.41 547.61" stroke="rgba(49, 130, 206, 1)" stroke-width="1.5"></path><path d="M499.3 504.12L499.3 504.12" stroke="rgba(49, 130, 206, 1)" stroke-width="1.5"></path><path d="M538.2 653.53L538.2 653.53" stroke="rgba(49, 130, 206, 1)" stroke-width="1.5"></path><path d="M538.2 653.53L645.62 668.69" stroke="rgba(49, 130, 206, 1)" stroke-width="1.5"></path><path d="M702.52 347.73L702.52 347.73" stroke="rgba(49, 130, 206, 1)" stroke-width="1.5"></path><path d="M702.52 347.73L792.19 355.39" stroke="rgba(49, 130, 206, 1)" stroke-width="1.5"></path><path d="M702.52 347.73L826.8 216.4" stroke="rgba(49, 130, 206, 1)" stroke-width="1.5"></path><path d="M702.52 347.73L806.8 507.11" stroke="rgba(49, 130, 206, 1)" stroke-width="1.5"></path><path d="M702.52 347.73L711.41 547.61" stroke="rgba(49, 130, 206, 1)" stroke-width="1.5"></path><path d="M702.52 347.73L499.3 504.12" stroke="rgba(49, 130, 206, 1)" stroke-width="1.5"></path><path d="M711.41 547.61L711.41 547.61" stroke="rgba(49, 130, 206, 1)" stroke-width="1.5"></path><path d="M711.41 547.61L806.8 507.11" stroke="rgba(49, 130, 206, 1)" stroke-width="1.5"></path><path d="M711.41 547.61L645.62 668.69" stroke="rgba(49, 130, 206, 1)" stroke-width="1.5"></path><path d="M711.41 547.61L826.24 643.75" stroke="rgba(49, 130, 206, 1)" stroke-width="1.5"></path><path d="M711.41 547.61L538.2 653.53" stroke="rgba(49, 130, 206, 1)" stroke-width="1.5"></path><path d="M645.62 668.69L645.62 668.69" stroke="rgba(49, 130, 206, 1)" stroke-width="1.5"></path><path d="M645.62 668.69L826.24 643.75" stroke="rgba(49, 130, 206, 1)" stroke-width="1.5"></path><path d="M645.62 668.69L499.3 504.12" stroke="rgba(49, 130, 206, 1)" stroke-width="1.5"></path><path d="M826.8 216.4L826.8 216.4" stroke="rgba(49, 130, 206, 1)" stroke-width="1.5"></path><path d="M826.8 216.4L940.41 235.34" stroke="rgba(49, 130, 206, 1)" stroke-width="1.5"></path><path d="M826.8 216.4L792.19 355.39" stroke="rgba(49, 130, 206, 1)" stroke-width="1.5"></path><path d="M792.19 355.39L792.19 355.39" stroke="rgba(49, 130, 206, 1)" stroke-width="1.5"></path><path d="M792.19 355.39L806.8 507.11" stroke="rgba(49, 130, 206, 1)" stroke-width="1.5"></path><path d="M806.8 507.11L806.8 507.11" stroke="rgba(49, 130, 206, 1)" stroke-width="1.5"></path><path d="M806.8 507.11L826.24 643.75" stroke="rgba(49, 130, 206, 1)" stroke-width="1.5"></path><path d="M806.8 507.11L958.29 492.46" stroke="rgba(49, 130, 206, 1)" stroke-width="1.5"></path><path d="M826.24 643.75L826.24 643.75" stroke="rgba(49, 130, 206, 1)" stroke-width="1.5"></path><path d="M826.24 643.75L940.51 654.59" stroke="rgba(49, 130, 206, 1)" stroke-width="1.5"></path><path d="M944.76 -89.34L944.76 -89.34" stroke="rgba(49, 130, 206, 1)" stroke-width="1.5"></path><path d="M944.76 -89.34L1109.41 -78.66" stroke="rgba(49, 130, 206, 1)" stroke-width="1.5"></path><path d="M944.76 -89.34L999.79 105.54" stroke="rgba(49, 130, 206, 1)" stroke-width="1.5"></path><path d="M944.76 -89.34L1115.36 86.05" stroke="rgba(49, 130, 206, 1)" stroke-width="1.5"></path><path d="M944.76 -89.34L940.41 235.34" stroke="rgba(49, 130, 206, 1)" stroke-width="1.5"></path><path d="M944.76 -89.34L826.8 216.4" stroke="rgba(49, 130, 206, 1)" stroke-width="1.5"></path><path d="M999.79 105.54L999.79 105.54" stroke="rgba(49, 130, 206, 1)" stroke-width="1.5"></path><path d="M999.79 105.54L1115.36 86.05" stroke="rgba(49, 130, 206, 1)" stroke-width="1.5"></path><path d="M999.79 105.54L940.41 235.34" stroke="rgba(49, 130, 206, 1)" stroke-width="1.5"></path><path d="M940.41 235.34L940.41 235.34" stroke="rgba(49, 130, 206, 1)" stroke-width="1.5"></path><path d="M940.41 235.34L992.74 341.71" stroke="rgba(49, 130, 206, 1)" stroke-width="1.5"></path><path d="M992.74 341.71L992.74 341.71" stroke="rgba(49, 130, 206, 1)" stroke-width="1.5"></path><path d="M992.74 341.71L958.29 492.46" stroke="rgba(49, 130, 206, 1)" stroke-width="1.5"></path><path d="M992.74 341.71L1140.03 262.16" stroke="rgba(49, 130, 206, 1)" stroke-width="1.5"></path><path d="M992.74 341.71L1161.79 410.67" stroke="rgba(49, 130, 206, 1)" stroke-width="1.5"></path><path d="M992.74 341.71L792.19 355.39" stroke="rgba(49, 130, 206, 1)" stroke-width="1.5"></path><path d="M992.74 341.71L826.8 216.4" stroke="rgba(49, 130, 206, 1)" stroke-width="1.5"></path><path d="M958.29 492.46L958.29 492.46" stroke="rgba(49, 130, 206, 1)" stroke-width="1.5"></path><path d="M940.51 654.59L940.51 654.59" stroke="rgba(49, 130, 206, 1)" stroke-width="1.5"></path><path d="M940.51 654.59L958.29 492.46" stroke="rgba(49, 130, 206, 1)" stroke-width="1.5"></path><path d="M940.51 654.59L806.8 507.11" stroke="rgba(49, 130, 206, 1)" stroke-width="1.5"></path><path d="M1109.41 -78.66L1109.41 -78.66" stroke="rgba(49, 130, 206, 1)" stroke-width="1.5"></path><path d="M1109.41 -78.66L1115.36 86.05" stroke="rgba(49, 130, 206, 1)" stroke-width="1.5"></path><path d="M1115.36 86.05L1115.36 86.05" stroke="rgba(49, 130, 206, 1)" stroke-width="1.5"></path><path d="M1115.36 86.05L1140.03 262.16" stroke="rgba(49, 130, 206, 1)" stroke-width="1.5"></path><path d="M1115.36 86.05L1311.23 89.65" stroke="rgba(49, 130, 206, 1)" stroke-width="1.5"></path><path d="M1115.36 86.05L1276.25 -61.51" stroke="rgba(49, 130, 206, 1)" stroke-width="1.5"></path><path d="M1140.03 262.16L1140.03 262.16" stroke="rgba(49, 130, 206, 1)" stroke-width="1.5"></path><path d="M1140.03 262.16L1279.92 251.92" stroke="rgba(49, 130, 206, 1)" stroke-width="1.5"></path><path d="M1140.03 262.16L1161.79 410.67" stroke="rgba(49, 130, 206, 1)" stroke-width="1.5"></path><path d="M1161.79 410.67L1161.79 410.67" stroke="rgba(49, 130, 206, 1)" stroke-width="1.5"></path><path d="M1161.79 410.67L1147.57 532.66" stroke="rgba(49, 130, 206, 1)" stroke-width="1.5"></path><path d="M1161.79 410.67L1276.28 530.51" stroke="rgba(49, 130, 206, 1)" stroke-width="1.5"></path><path d="M1161.79 410.67L1279.92 251.92" stroke="rgba(49, 130, 206, 1)" stroke-width="1.5"></path><path d="M1147.57 532.66L1147.57 532.66" stroke="rgba(49, 130, 206, 1)" stroke-width="1.5"></path><path d="M1147.55 697.98L1147.55 697.98" stroke="rgba(49, 130, 206, 1)" stroke-width="1.5"></path><path d="M1147.55 697.98L1275.85 668.82" stroke="rgba(49, 130, 206, 1)" stroke-width="1.5"></path><path d="M1147.55 697.98L1147.57 532.66" stroke="rgba(49, 130, 206, 1)" stroke-width="1.5"></path><path d="M1147.55 697.98L1276.28 530.51" stroke="rgba(49, 130, 206, 1)" stroke-width="1.5"></path><path d="M1147.55 697.98L940.51 654.59" stroke="rgba(49, 130, 206, 1)" stroke-width="1.5"></path><path d="M1276.25 -61.51L1276.25 -61.51" stroke="rgba(49, 130, 206, 1)" stroke-width="1.5"></path><path d="M1276.25 -61.51L1401.61 -61.87" stroke="rgba(49, 130, 206, 1)" stroke-width="1.5"></path><path d="M1276.25 -61.51L1311.23 89.65" stroke="rgba(49, 130, 206, 1)" stroke-width="1.5"></path><path d="M1276.25 -61.51L1109.41 -78.66" stroke="rgba(49, 130, 206, 1)" stroke-width="1.5"></path><path d="M1276.25 -61.51L1407.51 44.24" stroke="rgba(49, 130, 206, 1)" stroke-width="1.5"></path><path d="M1311.23 89.65L1311.23 89.65" stroke="rgba(49, 130, 206, 1)" stroke-width="1.5"></path><path d="M1311.23 89.65L1407.51 44.24" stroke="rgba(49, 130, 206, 1)" stroke-width="1.5"></path><path d="M1311.23 89.65L1279.92 251.92" stroke="rgba(49, 130, 206, 1)" stroke-width="1.5"></path><path d="M1311.23 89.65L1401.61 -61.87" stroke="rgba(49, 130, 206, 1)" stroke-width="1.5"></path><path d="M1279.92 251.92L1279.92 251.92" stroke="rgba(49, 130, 206, 1)" stroke-width="1.5"></path><path d="M1279.92 251.92L1410.64 246.66" stroke="rgba(49, 130, 206, 1)" stroke-width="1.5"></path><path d="M1279.92 251.92L1394.32 394.87" stroke="rgba(49, 130, 206, 1)" stroke-width="1.5"></path><path d="M1276.28 530.51L1276.28 530.51" stroke="rgba(49, 130, 206, 1)" stroke-width="1.5"></path><path d="M1276.28 530.51L1147.57 532.66" stroke="rgba(49, 130, 206, 1)" stroke-width="1.5"></path><path d="M1276.28 530.51L1275.85 668.82" stroke="rgba(49, 130, 206, 1)" stroke-width="1.5"></path><path d="M1276.28 530.51L1422 530.15" stroke="rgba(49, 130, 206, 1)" stroke-width="1.5"></path><path d="M1276.28 530.51L1394.32 394.87" stroke="rgba(49, 130, 206, 1)" stroke-width="1.5"></path><path d="M1275.85 668.82L1275.85 668.82" stroke="rgba(49, 130, 206, 1)" stroke-width="1.5"></path><path d="M1401.61 -61.87L1401.61 -61.87" stroke="rgba(49, 130, 206, 1)" stroke-width="1.5"></path><path d="M1401.61 -61.87L1407.51 44.24" stroke="rgba(49, 130, 206, 1)" stroke-width="1.5"></path><path d="M1401.61 -61.87L1550.07 37.74" stroke="rgba(49, 130, 206, 1)" stroke-width="1.5"></path><path d="M1401.61 -61.87L1585.35 -55.39" stroke="rgba(49, 130, 206, 1)" stroke-width="1.5"></path><path d="M1407.51 44.24L1407.51 44.24" stroke="rgba(49, 130, 206, 1)" stroke-width="1.5"></path><path d="M1410.64 246.66L1410.64 246.66" stroke="rgba(49, 130, 206, 1)" stroke-width="1.5"></path><path d="M1410.64 246.66L1540.47 237.87" stroke="rgba(49, 130, 206, 1)" stroke-width="1.5"></path><path d="M1410.64 246.66L1394.32 394.87" stroke="rgba(49, 130, 206, 1)" stroke-width="1.5"></path><path d="M1394.32 394.87L1394.32 394.87" stroke="rgba(49, 130, 206, 1)" stroke-width="1.5"></path><path d="M1394.32 394.87L1422 530.15" stroke="rgba(49, 130, 206, 1)" stroke-width="1.5"></path><path d="M1394.32 394.87L1544.12 373.58" stroke="rgba(49, 130, 206, 1)" stroke-width="1.5"></path><path d="M1422 530.15L1422 530.15" stroke="rgba(49, 130, 206, 1)" stroke-width="1.5"></path><path d="M1422 530.15L1566.41 510.94" stroke="rgba(49, 130, 206, 1)" stroke-width="1.5"></path><path d="M1415.29 708.84L1415.29 708.84" stroke="rgba(49, 130, 206, 1)" stroke-width="1.5"></path><path d="M1415.29 708.84L1275.85 668.82" stroke="rgba(49, 130, 206, 1)" stroke-width="1.5"></path><path d="M1415.29 708.84L1422 530.15" stroke="rgba(49, 130, 206, 1)" stroke-width="1.5"></path><path d="M1415.29 708.84L1602.4 683.02" stroke="rgba(49, 130, 206, 1)" stroke-width="1.5"></path><path d="M1415.29 708.84L1276.28 530.51" stroke="rgba(49, 130, 206, 1)" stroke-width="1.5"></path><path d="M1585.35 -55.39L1585.35 -55.39" stroke="rgba(49, 130, 206, 1)" stroke-width="1.5"></path><path d="M1585.35 -55.39L1550.07 37.74" stroke="rgba(49, 130, 206, 1)" stroke-width="1.5"></path><path d="M1585.35 -55.39L1407.51 44.24" stroke="rgba(49, 130, 206, 1)" stroke-width="1.5"></path><path d="M1585.35 -55.39L1540.47 237.87" stroke="rgba(49, 130, 206, 1)" stroke-width="1.5"></path><path d="M1585.35 -55.39L1276.25 -61.51" stroke="rgba(49, 130, 206, 1)" stroke-width="1.5"></path><path d="M1550.07 37.74L1550.07 37.74" stroke="rgba(49, 130, 206, 1)" stroke-width="1.5"></path><path d="M1550.07 37.74L1407.51 44.24" stroke="rgba(49, 130, 206, 1)" stroke-width="1.5"></path><path d="M1540.47 237.87L1540.47 237.87" stroke="rgba(49, 130, 206, 1)" stroke-width="1.5"></path><path d="M1544.12 373.58L1544.12 373.58" stroke="rgba(49, 130, 206, 1)" stroke-width="1.5"></path><path d="M1544.12 373.58L1540.47 237.87" stroke="rgba(49, 130, 206, 1)" stroke-width="1.5"></path><path d="M1544.12 373.58L1566.41 510.94" stroke="rgba(49, 130, 206, 1)" stroke-width="1.5"></path><path d="M1544.12 373.58L1410.64 246.66" stroke="rgba(49, 130, 206, 1)" stroke-width="1.5"></path><path d="M1544.12 373.58L1422 530.15" stroke="rgba(49, 130, 206, 1)" stroke-width="1.5"></path><path d="M1544.12 373.58L1279.92 251.92" stroke="rgba(49, 130, 206, 1)" stroke-width="1.5"></path><path d="M1566.41 510.94L1566.41 510.94" stroke="rgba(49, 130, 206, 1)" stroke-width="1.5"></path><path d="M1566.41 510.94L1602.4 683.02" stroke="rgba(49, 130, 206, 1)" stroke-width="1.5"></path><path d="M1566.41 510.94L1394.32 394.87" stroke="rgba(49, 130, 206, 1)" stroke-width="1.5"></path><path d="M1602.4 683.02L1602.4 683.02" stroke="rgba(49, 130, 206, 1)" stroke-width="1.5"></path><path d="M1602.4 683.02L1422 530.15" stroke="rgba(49, 130, 206, 1)" stroke-width="1.5"></path><path d="M1602.4 683.02L1544.12 373.58" stroke="rgba(49, 130, 206, 1)" stroke-width="1.5"></path><path d="M1602.4 683.02L1275.85 668.82" stroke="rgba(49, 130, 206, 1)" stroke-width="1.5"></path><path d="M1602.4 683.02L1394.32 394.87" stroke="rgba(49, 130, 206, 1)" stroke-width="1.5"></path><circle r="5" cx="-54.71" cy="351.13" fill="rgba(49, 130, 206, 1)"></circle><circle r="5" cx="-58.59" cy="549.82" fill="rgba(49, 130, 206, 1)"></circle><circle r="5" cx="-80.12" cy="680" fill="rgba(49, 130, 206, 1)"></circle><circle r="5" cx="68.75" cy="394.45" fill="rgba(49, 130, 206, 1)"></circle><circle r="5" cx="111.21" cy="560.52" fill="rgba(49, 130, 206, 1)"></circle><circle r="5" cx="46.41" cy="706.48" fill="rgba(49, 130, 206, 1)"></circle><circle r="5" cx="189.17" cy="386.52" fill="rgba(49, 130, 206, 1)"></circle><circle r="5" cx="240.19" cy="539.71" fill="rgba(49, 130, 206, 1)"></circle><circle r="5" cx="259.72" cy="691.48" fill="rgba(49, 130, 206, 1)"></circle><circle r="5" cx="366.62" cy="411.92" fill="rgba(49, 130, 206, 1)"></circle><circle r="5" cx="377.16" cy="488.03" fill="rgba(49, 130, 206, 1)"></circle><circle r="5" cx="391.21" cy="692.62" fill="rgba(49, 130, 206, 1)"></circle><circle r="5" cx="525.08" cy="397.02" fill="rgba(49, 130, 206, 1)"></circle><circle r="5" cx="499.3" cy="504.12" fill="rgba(49, 130, 206, 1)"></circle><circle r="5" cx="538.2" cy="653.53" fill="rgba(49, 130, 206, 1)"></circle><circle r="5" cx="702.52" cy="347.73" fill="rgba(49, 130, 206, 1)"></circle><circle r="5" cx="711.41" cy="547.61" fill="rgba(49, 130, 206, 1)"></circle><circle r="5" cx="645.62" cy="668.69" fill="rgba(49, 130, 206, 1)"></circle><circle r="5" cx="826.8" cy="216.4" fill="rgba(49, 130, 206, 1)"></circle><circle r="5" cx="792.19" cy="355.39" fill="rgba(49, 130, 206, 1)"></circle><circle r="5" cx="806.8" cy="507.11" fill="rgba(49, 130, 206, 1)"></circle><circle r="5" cx="826.24" cy="643.75" fill="rgba(49, 130, 206, 1)"></circle><circle r="5" cx="944.76" cy="-89.34" fill="rgba(49, 130, 206, 1)"></circle><circle r="5" cx="999.79" cy="105.54" fill="rgba(49, 130, 206, 1)"></circle><circle r="5" cx="940.41" cy="235.34" fill="rgba(49, 130, 206, 1)"></circle><circle r="5" cx="992.74" cy="341.71" fill="rgba(49, 130, 206, 1)"></circle><circle r="5" cx="958.29" cy="492.46" fill="rgba(49, 130, 206, 1)"></circle><circle r="5" cx="940.51" cy="654.59" fill="rgba(49, 130, 206, 1)"></circle><circle r="5" cx="1109.41" cy="-78.66" fill="rgba(49, 130, 206, 1)"></circle><circle r="5" cx="1115.36" cy="86.05" fill="rgba(49, 130, 206, 1)"></circle><circle r="5" cx="1140.03" cy="262.16" fill="rgba(49, 130, 206, 1)"></circle><circle r="5" cx="1161.79" cy="410.67" fill="rgba(49, 130, 206, 1)"></circle><circle r="5" cx="1147.57" cy="532.66" fill="rgba(49, 130, 206, 1)"></circle><circle r="5" cx="1147.55" cy="697.98" fill="rgba(49, 130, 206, 1)"></circle><circle r="5" cx="1276.25" cy="-61.51" fill="rgba(49, 130, 206, 1)"></circle><circle r="5" cx="1311.23" cy="89.65" fill="rgba(49, 130, 206, 1)"></circle><circle r="5" cx="1279.92" cy="251.92" fill="rgba(49, 130, 206, 1)"></circle><circle r="5" cx="1276.28" cy="530.51" fill="rgba(49, 130, 206, 1)"></circle><circle r="5" cx="1275.85" cy="668.82" fill="rgba(49, 130, 206, 1)"></circle><circle r="5" cx="1401.61" cy="-61.87" fill="rgba(49, 130, 206, 1)"></circle><circle r="5" cx="1407.51" cy="44.24" fill="rgba(49, 130, 206, 1)"></circle><circle r="5" cx="1410.64" cy="246.66" fill="rgba(49, 130, 206, 1)"></circle><circle r="5" cx="1394.32" cy="394.87" fill="rgba(49, 130, 206, 1)"></circle><circle r="5" cx="1422" cy="530.15" fill="rgba(49, 130, 206, 1)"></circle><circle r="5" cx="1415.29" cy="708.84" fill="rgba(49, 130, 206, 1)"></circle><circle r="5" cx="1585.35" cy="-55.39" fill="rgba(49, 130, 206, 1)"></circle><circle r="5" cx="1550.07" cy="37.74" fill="rgba(49, 130, 206, 1)"></circle><circle r="5" cx="1540.47" cy="237.87" fill="rgba(49, 130, 206, 1)"></circle><circle r="5" cx="1544.12" cy="373.58" fill="rgba(49, 130, 206, 1)"></circle><circle r="5" cx="1566.41" cy="510.94" fill="rgba(49, 130, 206, 1)"></circle><circle r="5" cx="1602.4" cy="683.02" fill="rgba(49, 130, 206, 1)"></circle><path d="M1124.59 372.06L1124.59 372.06" stroke="hsl(209, 61.6%, 65%)" stroke-width="1.5"></path><path d="M1124.59 372.06L1119.3 491.55" stroke="hsl(209, 61.6%, 65%)" stroke-width="1.5"></path><path d="M1124.59 372.06L979.53 354.38" stroke="hsl(209, 61.6%, 65%)" stroke-width="1.5"></path><path d="M1124.59 372.06L1274.11 387.99" stroke="hsl(209, 61.6%, 65%)" stroke-width="1.5"></path><path d="M1295.7 659.09L1295.7 659.09" stroke="hsl(209, 61.6%, 65%)" stroke-width="1.5"></path><path d="M1295.7 659.09L1291.8 529.43" stroke="hsl(209, 61.6%, 65%)" stroke-width="1.5"></path><path d="M1295.7 659.09L1452.07 682.43" stroke="hsl(209, 61.6%, 65%)" stroke-width="1.5"></path><path d="M1295.7 659.09L1387.5 493.26" stroke="hsl(209, 61.6%, 65%)" stroke-width="1.5"></path><path d="M1295.7 659.09L1090.72 651.88" stroke="hsl(209, 61.6%, 65%)" stroke-width="1.5"></path><path d="M1295.7 659.09L1119.3 491.55" stroke="hsl(209, 61.6%, 65%)" stroke-width="1.5"></path><path d="M1295.7 659.09L1274.11 387.99" stroke="hsl(209, 61.6%, 65%)" stroke-width="1.5"></path><path d="M-43.44 558.73L-43.44 558.73" stroke="hsl(209, 61.6%, 65%)" stroke-width="1.5"></path><path d="M-43.44 558.73L50.79 661.74" stroke="hsl(209, 61.6%, 65%)" stroke-width="1.5"></path><path d="M-43.44 558.73L93.95 500.89" stroke="hsl(209, 61.6%, 65%)" stroke-width="1.5"></path><path d="M-43.44 558.73L-41.72 709.69" stroke="hsl(209, 61.6%, 65%)" stroke-width="1.5"></path><path d="M-43.44 558.73L189.22 670.61" stroke="hsl(209, 61.6%, 65%)" stroke-width="1.5"></path><path d="M-43.44 558.73L209.91 497.19" stroke="hsl(209, 61.6%, 65%)" stroke-width="1.5"></path><path d="M-41.72 709.69L-41.72 709.69" stroke="hsl(209, 61.6%, 65%)" stroke-width="1.5"></path><path d="M-41.72 709.69L50.79 661.74" stroke="hsl(209, 61.6%, 65%)" stroke-width="1.5"></path><path d="M-41.72 709.69L189.22 670.61" stroke="hsl(209, 61.6%, 65%)" stroke-width="1.5"></path><path d="M93.95 500.89L93.95 500.89" stroke="hsl(209, 61.6%, 65%)" stroke-width="1.5"></path><path d="M93.95 500.89L209.91 497.19" stroke="hsl(209, 61.6%, 65%)" stroke-width="1.5"></path><path d="M50.79 661.74L50.79 661.74" stroke="hsl(209, 61.6%, 65%)" stroke-width="1.5"></path><path d="M50.79 661.74L189.22 670.61" stroke="hsl(209, 61.6%, 65%)" stroke-width="1.5"></path><path d="M209.91 497.19L209.91 497.19" stroke="hsl(209, 61.6%, 65%)" stroke-width="1.5"></path><path d="M209.91 497.19L189.22 670.61" stroke="hsl(209, 61.6%, 65%)" stroke-width="1.5"></path><path d="M209.91 497.19L50.79 661.74" stroke="hsl(209, 61.6%, 65%)" stroke-width="1.5"></path><path d="M209.91 497.19L392.28 695.52" stroke="hsl(209, 61.6%, 65%)" stroke-width="1.5"></path><path d="M189.22 670.61L189.22 670.61" stroke="hsl(209, 61.6%, 65%)" stroke-width="1.5"></path><path d="M189.22 670.61L93.95 500.89" stroke="hsl(209, 61.6%, 65%)" stroke-width="1.5"></path><path d="M189.22 670.61L392.28 695.52" stroke="hsl(209, 61.6%, 65%)" stroke-width="1.5"></path><path d="M392.28 695.52L392.28 695.52" stroke="hsl(209, 61.6%, 65%)" stroke-width="1.5"></path><path d="M392.28 695.52L520.89 657.67" stroke="hsl(209, 61.6%, 65%)" stroke-width="1.5"></path><path d="M392.28 695.52L529.74 556.48" stroke="hsl(209, 61.6%, 65%)" stroke-width="1.5"></path><path d="M529.74 556.48L529.74 556.48" stroke="hsl(209, 61.6%, 65%)" stroke-width="1.5"></path><path d="M529.74 556.48L520.89 657.67" stroke="hsl(209, 61.6%, 65%)" stroke-width="1.5"></path><path d="M529.74 556.48L657.37 539.36" stroke="hsl(209, 61.6%, 65%)" stroke-width="1.5"></path><path d="M520.89 657.67L520.89 657.67" stroke="hsl(209, 61.6%, 65%)" stroke-width="1.5"></path><path d="M520.89 657.67L669.02 702.03" stroke="hsl(209, 61.6%, 65%)" stroke-width="1.5"></path><path d="M676.41 412.43L676.41 412.43" stroke="hsl(209, 61.6%, 65%)" stroke-width="1.5"></path><path d="M676.41 412.43L657.37 539.36" stroke="hsl(209, 61.6%, 65%)" stroke-width="1.5"></path><path d="M676.41 412.43L829.74 363.21" stroke="hsl(209, 61.6%, 65%)" stroke-width="1.5"></path><path d="M676.41 412.43L529.74 556.48" stroke="hsl(209, 61.6%, 65%)" stroke-width="1.5"></path><path d="M676.41 412.43L844.21 555.4" stroke="hsl(209, 61.6%, 65%)" stroke-width="1.5"></path><path d="M657.37 539.36L657.37 539.36" stroke="hsl(209, 61.6%, 65%)" stroke-width="1.5"></path><path d="M657.37 539.36L669.02 702.03" stroke="hsl(209, 61.6%, 65%)" stroke-width="1.5"></path><path d="M657.37 539.36L520.89 657.67" stroke="hsl(209, 61.6%, 65%)" stroke-width="1.5"></path><path d="M657.37 539.36L844.21 555.4" stroke="hsl(209, 61.6%, 65%)" stroke-width="1.5"></path><path d="M657.37 539.36L834.57 653.27" stroke="hsl(209, 61.6%, 65%)" stroke-width="1.5"></path><path d="M669.02 702.03L669.02 702.03" stroke="hsl(209, 61.6%, 65%)" stroke-width="1.5"></path><path d="M669.02 702.03L834.57 653.27" stroke="hsl(209, 61.6%, 65%)" stroke-width="1.5"></path><path d="M669.02 702.03L529.74 556.48" stroke="hsl(209, 61.6%, 65%)" stroke-width="1.5"></path><path d="M669.02 702.03L844.21 555.4" stroke="hsl(209, 61.6%, 65%)" stroke-width="1.5"></path><path d="M669.02 702.03L392.28 695.52" stroke="hsl(209, 61.6%, 65%)" stroke-width="1.5"></path><path d="M829.74 363.21L829.74 363.21" stroke="hsl(209, 61.6%, 65%)" stroke-width="1.5"></path><path d="M829.74 363.21L979.53 354.38" stroke="hsl(209, 61.6%, 65%)" stroke-width="1.5"></path><path d="M829.74 363.21L844.21 555.4" stroke="hsl(209, 61.6%, 65%)" stroke-width="1.5"></path><path d="M829.74 363.21L949.32 529.15" stroke="hsl(209, 61.6%, 65%)" stroke-width="1.5"></path><path d="M829.74 363.21L657.37 539.36" stroke="hsl(209, 61.6%, 65%)" stroke-width="1.5"></path><path d="M844.21 555.4L844.21 555.4" stroke="hsl(209, 61.6%, 65%)" stroke-width="1.5"></path><path d="M844.21 555.4L834.57 653.27" stroke="hsl(209, 61.6%, 65%)" stroke-width="1.5"></path><path d="M844.21 555.4L949.32 529.15" stroke="hsl(209, 61.6%, 65%)" stroke-width="1.5"></path><path d="M844.21 555.4L1002.12 662.8" stroke="hsl(209, 61.6%, 65%)" stroke-width="1.5"></path><path d="M834.57 653.27L834.57 653.27" stroke="hsl(209, 61.6%, 65%)" stroke-width="1.5"></path><path d="M834.57 653.27L1002.12 662.8" stroke="hsl(209, 61.6%, 65%)" stroke-width="1.5"></path><path d="M834.57 653.27L949.32 529.15" stroke="hsl(209, 61.6%, 65%)" stroke-width="1.5"></path><path d="M979.53 354.38L979.53 354.38" stroke="hsl(209, 61.6%, 65%)" stroke-width="1.5"></path><path d="M979.53 354.38L949.32 529.15" stroke="hsl(209, 61.6%, 65%)" stroke-width="1.5"></path><path d="M979.53 354.38L1097.43 204.01" stroke="hsl(209, 61.6%, 65%)" stroke-width="1.5"></path><path d="M949.32 529.15L949.32 529.15" stroke="hsl(209, 61.6%, 65%)" stroke-width="1.5"></path><path d="M949.32 529.15L1002.12 662.8" stroke="hsl(209, 61.6%, 65%)" stroke-width="1.5"></path><path d="M1002.12 662.8L1002.12 662.8" stroke="hsl(209, 61.6%, 65%)" stroke-width="1.5"></path><path d="M1002.12 662.8L1090.72 651.88" stroke="hsl(209, 61.6%, 65%)" stroke-width="1.5"></path><path d="M1136.33 92.44L1136.33 92.44" stroke="hsl(209, 61.6%, 65%)" stroke-width="1.5"></path><path d="M1136.33 92.44L1097.43 204.01" stroke="hsl(209, 61.6%, 65%)" stroke-width="1.5"></path><path d="M1136.33 92.44L1267.14 73.6" stroke="hsl(209, 61.6%, 65%)" stroke-width="1.5"></path><path d="M1136.33 92.44L1283.21 190.32" stroke="hsl(209, 61.6%, 65%)" stroke-width="1.5"></path><path d="M1136.33 92.44L1266.9 -76.94" stroke="hsl(209, 61.6%, 65%)" stroke-width="1.5"></path><path d="M1097.43 204.01L1097.43 204.01" stroke="hsl(209, 61.6%, 65%)" stroke-width="1.5"></path><path d="M1097.43 204.01L1124.59 372.06" stroke="hsl(209, 61.6%, 65%)" stroke-width="1.5"></path><path d="M1097.43 204.01L1283.21 190.32" stroke="hsl(209, 61.6%, 65%)" stroke-width="1.5"></path><path d="M1119.3 491.55L1119.3 491.55" stroke="hsl(209, 61.6%, 65%)" stroke-width="1.5"></path><path d="M1119.3 491.55L1090.72 651.88" stroke="hsl(209, 61.6%, 65%)" stroke-width="1.5"></path><path d="M1119.3 491.55L949.32 529.15" stroke="hsl(209, 61.6%, 65%)" stroke-width="1.5"></path><path d="M1090.72 651.88L1090.72 651.88" stroke="hsl(209, 61.6%, 65%)" stroke-width="1.5"></path><path d="M1090.72 651.88L949.32 529.15" stroke="hsl(209, 61.6%, 65%)" stroke-width="1.5"></path><path d="M1266.9 -76.94L1266.9 -76.94" stroke="hsl(209, 61.6%, 65%)" stroke-width="1.5"></path><path d="M1266.9 -76.94L1413.63 -52.46" stroke="hsl(209, 61.6%, 65%)" stroke-width="1.5"></path><path d="M1266.9 -76.94L1267.14 73.6" stroke="hsl(209, 61.6%, 65%)" stroke-width="1.5"></path><path d="M1267.14 73.6L1267.14 73.6" stroke="hsl(209, 61.6%, 65%)" stroke-width="1.5"></path><path d="M1267.14 73.6L1283.21 190.32" stroke="hsl(209, 61.6%, 65%)" stroke-width="1.5"></path><path d="M1267.14 73.6L1395.44 81.02" stroke="hsl(209, 61.6%, 65%)" stroke-width="1.5"></path><path d="M1283.21 190.32L1283.21 190.32" stroke="hsl(209, 61.6%, 65%)" stroke-width="1.5"></path><path d="M1283.21 190.32L1395.44 81.02" stroke="hsl(209, 61.6%, 65%)" stroke-width="1.5"></path><path d="M1283.21 190.32L1456.85 202.6" stroke="hsl(209, 61.6%, 65%)" stroke-width="1.5"></path><path d="M1283.21 190.32L1274.11 387.99" stroke="hsl(209, 61.6%, 65%)" stroke-width="1.5"></path><path d="M1274.11 387.99L1274.11 387.99" stroke="hsl(209, 61.6%, 65%)" stroke-width="1.5"></path><path d="M1274.11 387.99L1291.8 529.43" stroke="hsl(209, 61.6%, 65%)" stroke-width="1.5"></path><path d="M1274.11 387.99L1421.72 411.89" stroke="hsl(209, 61.6%, 65%)" stroke-width="1.5"></path><path d="M1274.11 387.99L1387.5 493.26" stroke="hsl(209, 61.6%, 65%)" stroke-width="1.5"></path><path d="M1274.11 387.99L1119.3 491.55" stroke="hsl(209, 61.6%, 65%)" stroke-width="1.5"></path><path d="M1291.8 529.43L1291.8 529.43" stroke="hsl(209, 61.6%, 65%)" stroke-width="1.5"></path><path d="M1291.8 529.43L1387.5 493.26" stroke="hsl(209, 61.6%, 65%)" stroke-width="1.5"></path><path d="M1291.8 529.43L1421.72 411.89" stroke="hsl(209, 61.6%, 65%)" stroke-width="1.5"></path><path d="M1291.8 529.43L1119.3 491.55" stroke="hsl(209, 61.6%, 65%)" stroke-width="1.5"></path><path d="M1291.8 529.43L1452.07 682.43" stroke="hsl(209, 61.6%, 65%)" stroke-width="1.5"></path><path d="M1413.63 -52.46L1413.63 -52.46" stroke="hsl(209, 61.6%, 65%)" stroke-width="1.5"></path><path d="M1413.63 -52.46L1539.64 -92.14" stroke="hsl(209, 61.6%, 65%)" stroke-width="1.5"></path><path d="M1413.63 -52.46L1395.44 81.02" stroke="hsl(209, 61.6%, 65%)" stroke-width="1.5"></path><path d="M1413.63 -52.46L1267.14 73.6" stroke="hsl(209, 61.6%, 65%)" stroke-width="1.5"></path><path d="M1395.44 81.02L1395.44 81.02" stroke="hsl(209, 61.6%, 65%)" stroke-width="1.5"></path><path d="M1456.85 202.6L1456.85 202.6" stroke="hsl(209, 61.6%, 65%)" stroke-width="1.5"></path><path d="M1456.85 202.6L1559.4 222.32" stroke="hsl(209, 61.6%, 65%)" stroke-width="1.5"></path><path d="M1456.85 202.6L1395.44 81.02" stroke="hsl(209, 61.6%, 65%)" stroke-width="1.5"></path><path d="M1421.72 411.89L1421.72 411.89" stroke="hsl(209, 61.6%, 65%)" stroke-width="1.5"></path><path d="M1421.72 411.89L1387.5 493.26" stroke="hsl(209, 61.6%, 65%)" stroke-width="1.5"></path><path d="M1421.72 411.89L1556.26 365.42" stroke="hsl(209, 61.6%, 65%)" stroke-width="1.5"></path><path d="M1387.5 493.26L1387.5 493.26" stroke="hsl(209, 61.6%, 65%)" stroke-width="1.5"></path><path d="M1387.5 493.26L1452.07 682.43" stroke="hsl(209, 61.6%, 65%)" stroke-width="1.5"></path><path d="M1452.07 682.43L1452.07 682.43" stroke="hsl(209, 61.6%, 65%)" stroke-width="1.5"></path><path d="M1452.07 682.43L1579.37 709.94" stroke="hsl(209, 61.6%, 65%)" stroke-width="1.5"></path><path d="M1452.07 682.43L1595.19 490.64" stroke="hsl(209, 61.6%, 65%)" stroke-width="1.5"></path><path d="M1539.64 -92.14L1539.64 -92.14" stroke="hsl(209, 61.6%, 65%)" stroke-width="1.5"></path><path d="M1539.64 -92.14L1557.06 99.44" stroke="hsl(209, 61.6%, 65%)" stroke-width="1.5"></path><path d="M1539.64 -92.14L1395.44 81.02" stroke="hsl(209, 61.6%, 65%)" stroke-width="1.5"></path><path d="M1539.64 -92.14L1266.9 -76.94" stroke="hsl(209, 61.6%, 65%)" stroke-width="1.5"></path><path d="M1539.64 -92.14L1456.85 202.6" stroke="hsl(209, 61.6%, 65%)" stroke-width="1.5"></path><path d="M1539.64 -92.14L1559.4 222.32" stroke="hsl(209, 61.6%, 65%)" stroke-width="1.5"></path><path d="M1557.06 99.44L1557.06 99.44" stroke="hsl(209, 61.6%, 65%)" stroke-width="1.5"></path><path d="M1557.06 99.44L1559.4 222.32" stroke="hsl(209, 61.6%, 65%)" stroke-width="1.5"></path><path d="M1557.06 99.44L1456.85 202.6" stroke="hsl(209, 61.6%, 65%)" stroke-width="1.5"></path><path d="M1559.4 222.32L1559.4 222.32" stroke="hsl(209, 61.6%, 65%)" stroke-width="1.5"></path><path d="M1556.26 365.42L1556.26 365.42" stroke="hsl(209, 61.6%, 65%)" stroke-width="1.5"></path><path d="M1556.26 365.42L1595.19 490.64" stroke="hsl(209, 61.6%, 65%)" stroke-width="1.5"></path><path d="M1556.26 365.42L1559.4 222.32" stroke="hsl(209, 61.6%, 65%)" stroke-width="1.5"></path><path d="M1556.26 365.42L1456.85 202.6" stroke="hsl(209, 61.6%, 65%)" stroke-width="1.5"></path><path d="M1556.26 365.42L1387.5 493.26" stroke="hsl(209, 61.6%, 65%)" stroke-width="1.5"></path><path d="M1556.26 365.42L1557.06 99.44" stroke="hsl(209, 61.6%, 65%)" stroke-width="1.5"></path><path d="M1595.19 490.64L1595.19 490.64" stroke="hsl(209, 61.6%, 65%)" stroke-width="1.5"></path><path d="M1595.19 490.64L1421.72 411.89" stroke="hsl(209, 61.6%, 65%)" stroke-width="1.5"></path><path d="M1579.37 709.94L1579.37 709.94" stroke="hsl(209, 61.6%, 65%)" stroke-width="1.5"></path><path d="M1579.37 709.94L1595.19 490.64" stroke="hsl(209, 61.6%, 65%)" stroke-width="1.5"></path><path d="M1579.37 709.94L1295.7 659.09" stroke="hsl(209, 61.6%, 65%)" stroke-width="1.5"></path><path d="M1579.37 709.94L1387.5 493.26" stroke="hsl(209, 61.6%, 65%)" stroke-width="1.5"></path><circle r="25" cx="1124.59" cy="372.06" fill="url(&quot;#SvgjsRadialGradient1065&quot;)"></circle><circle r="25" cx="1295.7" cy="659.09" fill="url(&quot;#SvgjsRadialGradient1065&quot;)"></circle><circle r="5" cx="-43.44" cy="558.73" fill="#98c1e7"></circle><circle r="5" cx="-41.72" cy="709.69" fill="#98c1e7"></circle><circle r="5" cx="93.95" cy="500.89" fill="#98c1e7"></circle><circle r="5" cx="50.79" cy="661.74" fill="#98c1e7"></circle><circle r="5" cx="209.91" cy="497.19" fill="#98c1e7"></circle><circle r="5" cx="189.22" cy="670.61" fill="#98c1e7"></circle><circle r="5" cx="392.28" cy="695.52" fill="#98c1e7"></circle><circle r="5" cx="529.74" cy="556.48" fill="#98c1e7"></circle><circle r="5" cx="520.89" cy="657.67" fill="#98c1e7"></circle><circle r="5" cx="676.41" cy="412.43" fill="#98c1e7"></circle><circle r="5" cx="657.37" cy="539.36" fill="#98c1e7"></circle><circle r="5" cx="669.02" cy="702.03" fill="#98c1e7"></circle><circle r="5" cx="829.74" cy="363.21" fill="#98c1e7"></circle><circle r="5" cx="844.21" cy="555.4" fill="#98c1e7"></circle><circle r="5" cx="834.57" cy="653.27" fill="#98c1e7"></circle><circle r="5" cx="979.53" cy="354.38" fill="#98c1e7"></circle><circle r="5" cx="949.32" cy="529.15" fill="#98c1e7"></circle><circle r="5" cx="1002.12" cy="662.8" fill="#98c1e7"></circle><circle r="5" cx="1136.33" cy="92.44" fill="#98c1e7"></circle><circle r="5" cx="1097.43" cy="204.01" fill="#98c1e7"></circle><circle r="5" cx="1119.3" cy="491.55" fill="#98c1e7"></circle><circle r="5" cx="1090.72" cy="651.88" fill="#98c1e7"></circle><circle r="5" cx="1266.9" cy="-76.94" fill="#98c1e7"></circle><circle r="5" cx="1267.14" cy="73.6" fill="#98c1e7"></circle><circle r="5" cx="1283.21" cy="190.32" fill="#98c1e7"></circle><circle r="5" cx="1274.11" cy="387.99" fill="#98c1e7"></circle><circle r="5" cx="1291.8" cy="529.43" fill="#98c1e7"></circle><circle r="5" cx="1413.63" cy="-52.46" fill="#98c1e7"></circle><circle r="5" cx="1395.44" cy="81.02" fill="#98c1e7"></circle><circle r="5" cx="1456.85" cy="202.6" fill="#98c1e7"></circle><circle r="5" cx="1421.72" cy="411.89" fill="#98c1e7"></circle><circle r="5" cx="1387.5" cy="493.26" fill="#98c1e7"></circle><circle r="5" cx="1452.07" cy="682.43" fill="#98c1e7"></circle><circle r="5" cx="1539.64" cy="-92.14" fill="#98c1e7"></circle><circle r="5" cx="1557.06" cy="99.44" fill="#98c1e7"></circle><circle r="5" cx="1559.4" cy="222.32" fill="#98c1e7"></circle><circle r="5" cx="1556.26" cy="365.42" fill="#98c1e7"></circle><circle r="5" cx="1595.19" cy="490.64" fill="#98c1e7"></circle><circle r="5" cx="1579.37" cy="709.94" fill="#98c1e7"></circle></g><defs><mask id="SvgjsMask1064"><rect width="1440" height="560" fill="#ffffff"></rect></mask><radialGradient id="SvgjsRadialGradient1065"><stop stop-color="#ffffff" offset="0.1"></stop><stop stop-color="rgba(49, 130, 206, 1)" offset="0.2"></stop><stop stop-color="rgba(49, 130, 206, 0)" offset="1"></stop></radialGradient></defs></svg>